<svg xmlns="http://www.w3.org/2000/svg" viewBox="0 0 64 64" role="img" aria-label="LifeNest mark">
  <defs>
    <linearGradient id="g1" x1="0" x2="1" y1="0" y2="1">
      <stop offset="0" stop-color="#2f6f55"></stop>
      <stop offset="1" stop-color="#3c9a6e"></stop>
    </linearGradient>
    <linearGradient id="g2" x1="0" x2="1" y1="1" y2="0">
      <stop offset="0" stop-color="#b7d96b"></stop>
      <stop offset="1" stop-color="#7fcf88"></stop>
    </linearGradient>
  </defs>
  <path d="M52 14c-9 0-16 3-20 10-6-7-12-10-20-10C8 14 6 16 6 20c0 18 13 30 26 30 7 0 13-3 18-8 5-5 8-11 8-18 0-6-2-10-6-10Z" fill="url(#g1)" opacity=".95"></path>
  <path d="M42 16c-8 2-14 6-18 13-1 3-1 7 0 11 1 5 4 9 9 12-7-1-12-4-16-8-5-5-8-11-8-18 0-2 2-4 4-5 7-2 16 1 29-5Z" fill="url(#g2)" opacity=".9"></path>
  <path d="M16 44c10-10 20-16 32-18" fill="none" stroke="rgba(255,255,255,.70)" stroke-width="3" stroke-linecap="round"></path>
</svg>